<?xml version="1.0" encoding="UTF-8"?>
<svg id="Camada_1" data-name="Camada 1" xmlns="http://www.w3.org/2000/svg" viewBox="0 0 1200.56 413.82">
  <defs>
    <style>
      .cls-1 {
        fill: #fff;
      }

      .cls-2 {
        fill: #151fb2;
      }
    </style>
  </defs>
  <rect class="cls-2" y="-1.13" width="1200.56" height="416.08"/>
  <g>
    <g>
      <path class="cls-1" d="m148.74,321.42v-21.69h11.8c1.3,0,2.49.3,3.58.9,1.08.6,1.95,1.42,2.59,2.45.64,1.03.96,2.19.96,3.47s-.35,2.56-1.04,3.64c-.69,1.08-1.61,1.94-2.74,2.57-1.14.63-2.41.94-3.81.94h-7.31v7.71h-4.03Zm4.03-11.43h6.88c.68,0,1.31-.15,1.89-.46.58-.31,1.04-.72,1.38-1.24.34-.52.51-1.08.51-1.7s-.17-1.13-.51-1.6c-.34-.46-.8-.84-1.38-1.12-.58-.28-1.21-.42-1.89-.42h-6.88v6.54Z"/>
      <path class="cls-1" d="m184.18,321.73c-2.05,0-3.86-.36-5.45-1.08-1.59-.72-2.82-1.71-3.7-2.97-.88-1.26-1.32-2.68-1.32-4.28,0-1.34.26-2.55.77-3.61.52-1.06,1.24-1.97,2.17-2.71.93-.74,2.01-1.32,3.25-1.74,1.24-.41,2.54-.62,3.9-.62s2.52.2,3.66.6c1.14.4,2.13.96,2.99,1.67.86.71,1.52,1.56,1.98,2.54.46.98.69,2.06.67,3.24l-.03,1.52h-16.36l-.71-2.7h13.88l-.5.43v-.68c-.1-.66-.42-1.24-.96-1.74-.54-.5-1.21-.88-2.01-1.15-.81-.27-1.67-.4-2.6-.4-1.22,0-2.31.17-3.28.51-.97.34-1.74.88-2.29,1.63-.56.74-.84,1.71-.84,2.91,0,1.03.31,1.95.93,2.74.62.8,1.49,1.41,2.6,1.84s2.41.65,3.87.65,2.58-.18,3.52-.54c.94-.36,1.72-.75,2.34-1.16l1.74,2.63c-.64.48-1.4.89-2.28,1.25-.88.36-1.82.65-2.84.87-1.01.22-2.04.33-3.1.33Z"/>
      <path class="cls-1" d="m208.53,321.73c-1.8,0-3.37-.36-4.72-1.08-1.35-.72-2.4-1.72-3.14-3.01-.74-1.28-1.12-2.75-1.12-4.4s.39-3.12,1.16-4.4c.77-1.28,1.85-2.28,3.24-3.01,1.38-.72,2.96-1.08,4.74-1.08,1.07,0,2.07.13,2.99.39.92.26,1.74.6,2.45,1.04.71.43,1.26.9,1.66,1.41.39.51.61,1.03.65,1.56l-1.02.12v-10.78h3.81v22.93h-3.69l-.09-4.28.74.22c-.02.52-.24,1.03-.65,1.53-.41.51-.98.97-1.69,1.39-.71.42-1.53.77-2.45,1.04-.92.27-1.87.4-2.87.4Zm.93-3.35c1.2,0,2.26-.23,3.18-.68.92-.45,1.63-1.06,2.14-1.83.51-.76.76-1.64.76-2.63s-.25-1.84-.76-2.62c-.51-.77-1.22-1.38-2.14-1.81-.92-.43-1.98-.65-3.18-.65s-2.25.22-3.16.65c-.91.43-1.62,1.04-2.14,1.81-.52.77-.77,1.65-.77,2.62s.26,1.87.77,2.63c.52.76,1.23,1.37,2.14,1.83.91.45,1.96.68,3.16.68Z"/>
      <path class="cls-1" d="m231.3,301.4c-.79,0-1.39-.19-1.81-.57-.42-.38-.63-.92-.63-1.63,0-.66.22-1.2.65-1.61.43-.41,1.03-.62,1.8-.62s1.36.19,1.78.57c.42.38.63.93.63,1.66,0,.64-.22,1.17-.65,1.58-.43.41-1.02.62-1.77.62Zm-1.89,20.01v-16.33h3.84v16.33h-3.84Z"/>
      <path class="cls-1" d="m250.7,321.73c-1.8,0-3.37-.37-4.71-1.1-1.34-.73-2.39-1.74-3.14-3.02-.75-1.28-1.13-2.74-1.13-4.37s.39-3.12,1.18-4.4c.78-1.28,1.86-2.28,3.24-3.01,1.37-.72,2.96-1.08,4.76-1.08,1.07,0,2.07.13,2.99.39.92.26,1.72.61,2.4,1.05.68.44,1.23.92,1.64,1.44.41.52.64,1.03.68,1.55h-.99v-4.09h3.84v16.33h-3.87v-4.34l.81.15c-.04.52-.28,1.04-.71,1.56-.43.53-1,1.01-1.7,1.44-.7.43-1.5.79-2.4,1.07-.9.28-1.85.42-2.87.42Zm.96-3.38c1.2,0,2.26-.22,3.18-.67.92-.44,1.63-1.05,2.14-1.83.51-.77.76-1.65.76-2.62s-.25-1.87-.76-2.63c-.51-.76-1.22-1.36-2.14-1.8-.92-.43-1.98-.65-3.18-.65s-2.26.22-3.18.65c-.92.43-1.63,1.03-2.14,1.8-.51.76-.76,1.64-.76,2.63s.25,1.84.76,2.62c.51.77,1.22,1.38,2.14,1.83.92.44,1.98.67,3.18.67Z"/>
      <path class="cls-1" d="m269.44,308.62v-3.53h13.73v3.53h-13.73Zm4.55,12.8v-21.16h3.81v21.16h-3.81Z"/>
      <path class="cls-1" d="m292.15,321.42v-16.33h3.75l.06,5.79-.99-.43c.33-1.05.85-2.01,1.55-2.88s1.53-1.55,2.48-2.06c.95-.51,1.94-.76,2.97-.76.64,0,1.26.07,1.87.2.61.13,1.11.32,1.5.54l-1.02,4.06c-.39-.25-.89-.44-1.49-.57-.6-.13-1.17-.2-1.7-.2-.79,0-1.5.13-2.14.39-.64.26-1.18.61-1.63,1.05-.44.44-.79.93-1.02,1.47-.24.54-.36,1.11-.36,1.7v8.02h-3.84Z"/>
      <path class="cls-1" d="m315.61,301.4c-.79,0-1.39-.19-1.81-.57-.42-.38-.63-.92-.63-1.63,0-.66.22-1.2.65-1.61.43-.41,1.03-.62,1.8-.62s1.36.19,1.78.57c.42.38.63.93.63,1.66,0,.64-.22,1.17-.65,1.58-.43.41-1.02.62-1.77.62Zm-1.89,20.01v-16.33h3.84v16.33h-3.84Z"/>
      <path class="cls-1" d="m336.02,321.73c-1.86,0-3.52-.37-4.99-1.12-1.47-.74-2.62-1.76-3.47-3.04-.85-1.28-1.27-2.73-1.27-4.34s.42-3.08,1.27-4.35c.85-1.27,2-2.28,3.45-3.02,1.46-.74,3.09-1.12,4.91-1.12s3.42.27,4.93.81c1.51.54,2.72,1.29,3.62,2.26l-2.14,2.85c-.48-.47-1.05-.9-1.74-1.29-.68-.38-1.41-.69-2.18-.91-.77-.23-1.54-.34-2.31-.34-1.18,0-2.21.22-3.1.67-.89.44-1.58,1.05-2.08,1.81-.5.76-.74,1.64-.74,2.63s.26,1.87.79,2.63c.53.76,1.24,1.37,2.14,1.81.9.44,1.91.67,3.02.67.93,0,1.77-.1,2.53-.31.75-.21,1.44-.47,2.04-.79.61-.32,1.17-.66,1.69-1.01l2.08,2.79c-1.03.74-2.26,1.38-3.69,1.91-1.43.53-3.02.79-4.77.79Z"/>
      <path class="cls-1" d="m365.95,321.42v-21.69h11.8c1.3,0,2.49.3,3.58.9,1.08.6,1.95,1.42,2.59,2.45.64,1.03.96,2.19.96,3.47s-.35,2.56-1.04,3.64c-.69,1.08-1.61,1.94-2.74,2.57-1.14.63-2.41.94-3.81.94h-7.31v7.71h-4.03Zm4.03-11.43h6.88c.68,0,1.31-.15,1.89-.46.58-.31,1.04-.72,1.38-1.24.34-.52.51-1.08.51-1.7s-.17-1.13-.51-1.6c-.34-.46-.8-.84-1.38-1.12-.58-.28-1.21-.42-1.89-.42h-6.88v6.54Z"/>
      <path class="cls-1" d="m399.88,321.73c-1.8,0-3.37-.37-4.71-1.1-1.34-.73-2.39-1.74-3.14-3.02-.75-1.28-1.13-2.74-1.13-4.37s.39-3.12,1.18-4.4c.78-1.28,1.86-2.28,3.24-3.01,1.37-.72,2.96-1.08,4.76-1.08,1.07,0,2.07.13,2.99.39.92.26,1.72.61,2.4,1.05.68.44,1.23.92,1.64,1.44.41.52.64,1.03.68,1.55h-.99v-4.09h3.84v16.33h-3.87v-4.34l.81.15c-.04.52-.28,1.04-.71,1.56-.43.53-1,1.01-1.7,1.44-.7.43-1.5.79-2.4,1.07-.9.28-1.85.42-2.87.42Zm.96-3.38c1.2,0,2.26-.22,3.18-.67.92-.44,1.63-1.05,2.14-1.83.51-.77.76-1.65.76-2.62s-.25-1.87-.76-2.63c-.51-.76-1.22-1.36-2.14-1.8-.92-.43-1.98-.65-3.18-.65s-2.26.22-3.18.65-1.63,1.03-2.14,1.8c-.51.76-.76,1.64-.76,2.63s.25,1.84.76,2.62c.51.77,1.22,1.38,2.14,1.83.92.44,1.98.67,3.18.67Z"/>
      <path class="cls-1" d="m420.98,321.42v-22.93h3.84v22.93h-3.84Z"/>
      <path class="cls-1" d="m435.42,321.42v-22.93h3.84v22.93h-3.84Z"/>
      <path class="cls-1" d="m452.05,301.4c-.79,0-1.39-.19-1.81-.57-.42-.38-.63-.92-.63-1.63,0-.66.22-1.2.65-1.61.43-.41,1.03-.62,1.8-.62s1.36.19,1.78.57c.42.38.63.93.63,1.66,0,.64-.22,1.17-.65,1.58-.43.41-1.02.62-1.77.62Zm-1.89,20.01v-16.33h3.84v16.33h-3.84Z"/>
      <path class="cls-1" d="m471.45,321.73c-1.8,0-3.37-.37-4.71-1.1-1.34-.73-2.39-1.74-3.14-3.02-.75-1.28-1.13-2.74-1.13-4.37s.39-3.12,1.18-4.4c.78-1.28,1.86-2.28,3.24-3.01,1.37-.72,2.96-1.08,4.76-1.08,1.07,0,2.07.13,2.99.39.92.26,1.72.61,2.4,1.05.68.44,1.23.92,1.64,1.44.41.52.64,1.03.68,1.55h-.99v-4.09h3.84v16.33h-3.87v-4.34l.81.15c-.04.52-.28,1.04-.71,1.56-.43.53-1,1.01-1.7,1.44-.7.43-1.5.79-2.4,1.07-.9.28-1.85.42-2.87.42Zm.96-3.38c1.2,0,2.26-.22,3.18-.67.92-.44,1.63-1.05,2.14-1.83.51-.77.76-1.65.76-2.62s-.25-1.87-.76-2.63c-.51-.76-1.22-1.36-2.14-1.8-.92-.43-1.98-.65-3.18-.65s-2.26.22-3.18.65c-.92.43-1.63,1.03-2.14,1.8-.51.76-.76,1.64-.76,2.63s.25,1.84.76,2.62c.51.77,1.22,1.38,2.14,1.83.92.44,1.98.67,3.18.67Z"/>
      <path class="cls-1" d="m490.19,308.62v-3.53h13.73v3.53h-13.73Zm4.55,12.8v-21.16h3.81v21.16h-3.81Z"/>
      <path class="cls-1" d="m514.95,301.4c-.79,0-1.39-.19-1.81-.57-.42-.38-.63-.92-.63-1.63,0-.66.22-1.2.65-1.61.43-.41,1.03-.62,1.8-.62s1.36.19,1.78.57c.42.38.63.93.63,1.66,0,.64-.22,1.17-.65,1.58-.43.41-1.02.62-1.77.62Zm-1.89,20.01v-16.33h3.84v16.33h-3.84Z"/>
      <path class="cls-1" d="m533.1,321.42l-8.58-16.33h4.4l6.41,13.14-1.02.22,6.72-13.35h4.24l-8.89,16.33h-3.28Z"/>
      <path class="cls-1" d="m560.18,321.73c-2.05,0-3.86-.36-5.45-1.08-1.59-.72-2.82-1.71-3.7-2.97-.88-1.26-1.32-2.68-1.32-4.28,0-1.34.26-2.55.77-3.61.52-1.06,1.24-1.97,2.17-2.71.93-.74,2.01-1.32,3.25-1.74,1.24-.41,2.54-.62,3.9-.62s2.52.2,3.66.6c1.14.4,2.13.96,2.99,1.67.86.71,1.52,1.56,1.98,2.54.46.98.69,2.06.67,3.24l-.03,1.52h-16.36l-.71-2.7h13.88l-.5.43v-.68c-.1-.66-.42-1.24-.96-1.74-.54-.5-1.21-.88-2.01-1.15-.81-.27-1.67-.4-2.6-.4-1.22,0-2.31.17-3.28.51-.97.34-1.74.88-2.29,1.63-.56.74-.84,1.71-.84,2.91,0,1.03.31,1.95.93,2.74.62.8,1.49,1.41,2.6,1.84s2.41.65,3.87.65,2.58-.18,3.52-.54c.94-.36,1.72-.75,2.34-1.16l1.74,2.63c-.64.48-1.4.89-2.28,1.25-.88.36-1.82.65-2.84.87-1.01.22-2.04.33-3.1.33Z"/>
      <path class="cls-1" d="m601.73,321.73c-1.74,0-3.35-.26-4.83-.79-1.49-.53-2.78-1.29-3.89-2.29-1.11-1-1.97-2.19-2.59-3.56-.62-1.37-.93-2.89-.93-4.54s.32-3.06.96-4.42c.64-1.35,1.52-2.53,2.65-3.53,1.13-1,2.43-1.78,3.92-2.32,1.49-.55,3.08-.82,4.77-.82,1.3,0,2.55.17,3.73.5,1.19.33,2.28.76,3.27,1.3.99.54,1.81,1.13,2.45,1.77l-2.42,3.19c-.64-.58-1.33-1.08-2.06-1.52-.73-.43-1.53-.77-2.4-1.01-.87-.24-1.81-.36-2.82-.36s-2.02.17-2.96.5c-.94.33-1.79.81-2.54,1.44-.75.63-1.35,1.39-1.78,2.29-.43.9-.65,1.91-.65,3.02,0,1.18.22,2.22.67,3.13.44.91,1.06,1.67,1.86,2.29.79.62,1.7,1.1,2.73,1.43,1.02.33,2.09.5,3.21.5s2.04-.14,2.91-.42,1.64-.64,2.32-1.07c.68-.43,1.3-.87,1.86-1.3l1.92,3.22c-.56.5-1.32,1.01-2.28,1.53-.96.53-2.05.97-3.27,1.32-1.22.35-2.49.53-3.81.53Z"/>
      <path class="cls-1" d="m626.11,321.73c-1.8,0-3.37-.37-4.71-1.1-1.34-.73-2.39-1.74-3.14-3.02-.75-1.28-1.13-2.74-1.13-4.37s.39-3.12,1.18-4.4c.78-1.28,1.86-2.28,3.24-3.01,1.37-.72,2.96-1.08,4.76-1.08,1.07,0,2.07.13,2.99.39.92.26,1.72.61,2.4,1.05.68.44,1.23.92,1.64,1.44.41.52.64,1.03.68,1.55h-.99v-4.09h3.84v16.33h-3.87v-4.34l.81.15c-.04.52-.28,1.04-.71,1.56-.43.53-1,1.01-1.7,1.44-.7.43-1.5.79-2.4,1.07-.9.28-1.85.42-2.87.42Zm.96-3.38c1.2,0,2.26-.22,3.18-.67.92-.44,1.63-1.05,2.14-1.83.51-.77.76-1.65.76-2.62s-.25-1.87-.76-2.63c-.51-.76-1.22-1.36-2.14-1.8-.92-.43-1.98-.65-3.18-.65s-2.26.22-3.18.65c-.92.43-1.63,1.03-2.14,1.8-.51.76-.76,1.64-.76,2.63s.25,1.84.76,2.62c.51.77,1.22,1.38,2.14,1.83.92.44,1.98.67,3.18.67Z"/>
      <path class="cls-1" d="m647.37,321.42v-16.33h3.75l.06,5.79-.99-.43c.33-1.05.85-2.01,1.55-2.88.7-.87,1.53-1.55,2.48-2.06.95-.51,1.94-.76,2.97-.76.64,0,1.26.07,1.87.2.61.13,1.11.32,1.5.54l-1.02,4.06c-.39-.25-.89-.44-1.49-.57-.6-.13-1.17-.2-1.7-.2-.79,0-1.5.13-2.14.39-.64.26-1.18.61-1.63,1.05-.44.44-.79.93-1.02,1.47-.24.54-.36,1.11-.36,1.7v8.02h-3.84Z"/>
      <path class="cls-1" d="m676.09,321.73c-2.05,0-3.86-.36-5.45-1.08-1.59-.72-2.82-1.71-3.7-2.97-.88-1.26-1.32-2.68-1.32-4.28,0-1.34.26-2.55.77-3.61.52-1.06,1.24-1.97,2.17-2.71.93-.74,2.01-1.32,3.25-1.74,1.24-.41,2.54-.62,3.9-.62s2.52.2,3.66.6c1.14.4,2.13.96,2.99,1.67.86.71,1.52,1.56,1.98,2.54.46.98.69,2.06.67,3.24l-.03,1.52h-16.36l-.71-2.7h13.88l-.5.43v-.68c-.1-.66-.42-1.24-.96-1.74-.54-.5-1.21-.88-2.01-1.15-.81-.27-1.67-.4-2.6-.4-1.22,0-2.31.17-3.28.51-.97.34-1.74.88-2.29,1.63-.56.74-.84,1.71-.84,2.91,0,1.03.31,1.95.93,2.74.62.8,1.49,1.41,2.6,1.84s2.41.65,3.87.65,2.58-.18,3.52-.54c.94-.36,1.72-.75,2.34-1.16l1.74,2.63c-.64.48-1.4.89-2.28,1.25-.88.36-1.82.65-2.84.87s-2.04.33-3.1.33Z"/>
      <path class="cls-1" d="m715.65,321.73c-1.53,0-2.93-.15-4.2-.46-1.27-.31-2.43-.77-3.47-1.38-1.04-.61-2-1.36-2.87-2.25l2.35-3.22c1.32,1.36,2.66,2.34,4.03,2.93,1.36.59,2.81.88,4.34.88.89,0,1.74-.11,2.54-.33.81-.22,1.47-.54,1.98-.98.52-.43.77-.99.77-1.67,0-.43-.13-.79-.39-1.08-.26-.29-.61-.54-1.05-.74-.44-.21-.94-.38-1.49-.51-.55-.13-1.12-.24-1.7-.33-.59-.08-1.14-.17-1.66-.25-1.34-.17-2.54-.42-3.59-.77-1.05-.35-1.96-.78-2.71-1.3-.75-.52-1.32-1.14-1.7-1.87-.38-.73-.57-1.57-.57-2.53,0-1.01.24-1.92.71-2.73.48-.81,1.14-1.49,2-2.04.86-.56,1.85-.99,2.99-1.29,1.14-.3,2.36-.45,3.69-.45s2.65.14,3.81.43c1.16.29,2.17.7,3.05,1.24.88.54,1.62,1.19,2.22,1.95l-2.45,2.79c-.56-.62-1.19-1.15-1.89-1.58-.7-.43-1.47-.76-2.29-.98-.83-.22-1.67-.33-2.54-.33-.97,0-1.83.1-2.59.31-.75.21-1.35.51-1.8.9-.44.39-.67.87-.67,1.43,0,.5.15.91.45,1.25.3.34.71.62,1.22.85.52.23,1.13.42,1.83.57.7.15,1.47.28,2.29.39,1.2.19,2.35.41,3.45.67,1.1.26,2.08.61,2.91,1.05.84.44,1.5,1.02,2,1.72.5.7.74,1.59.74,2.66,0,1.45-.41,2.7-1.22,3.75-.82,1.05-1.96,1.86-3.42,2.43-1.47.57-3.17.85-5.11.85Z"/>
      <path class="cls-1" d="m740.44,321.73c-1.36,0-2.56-.31-3.59-.93-1.03-.62-1.83-1.53-2.4-2.73-.57-1.2-.85-2.61-.85-4.24v-8.74h3.81v7.71c0,1.18.16,2.16.48,2.96.32.8.82,1.4,1.5,1.81.68.41,1.54.62,2.57.62.72,0,1.4-.11,2.03-.34.63-.23,1.19-.55,1.67-.98.49-.42.87-.94,1.15-1.55.28-.61.42-1.28.42-2v-8.24h3.81v16.33h-3.72l-.06-3.41.68-.37c-.27.68-.74,1.34-1.43,1.97-.68.63-1.53,1.14-2.56,1.53-1.02.39-2.19.59-3.52.59Z"/>
      <path class="cls-1" d="m761.57,328.23v-23.18h3.75l.06,3.75-.65-.28c.14-.6.57-1.18,1.27-1.75.7-.57,1.58-1.04,2.65-1.41,1.06-.37,2.22-.56,3.45-.56,1.8,0,3.37.36,4.73,1.07,1.35.71,2.41,1.7,3.16,2.96.75,1.26,1.13,2.73,1.13,4.4s-.38,3.11-1.13,4.38c-.75,1.27-1.81,2.27-3.16,2.99-1.35.72-2.92,1.08-4.69,1.08-1.3,0-2.5-.2-3.59-.6-1.1-.4-2-.91-2.73-1.52-.72-.61-1.17-1.2-1.33-1.78l.93-.43v10.87h-3.84Zm9.79-9.91c1.2,0,2.25-.22,3.16-.67.91-.44,1.62-1.05,2.14-1.81.52-.76.77-1.63.77-2.6s-.25-1.84-.76-2.6c-.51-.76-1.22-1.36-2.14-1.8-.92-.43-1.98-.65-3.18-.65s-2.23.22-3.16.65-1.65,1.03-2.17,1.8c-.52.76-.77,1.63-.77,2.6s.26,1.84.77,2.6c.52.76,1.24,1.37,2.17,1.81.93.44,1.98.67,3.16.67Z"/>
      <path class="cls-1" d="m789.82,328.23v-23.18h3.75l.06,3.75-.65-.28c.14-.6.57-1.18,1.27-1.75.7-.57,1.58-1.04,2.65-1.41,1.06-.37,2.22-.56,3.45-.56,1.8,0,3.37.36,4.73,1.07,1.35.71,2.41,1.7,3.16,2.96.75,1.26,1.13,2.73,1.13,4.4s-.38,3.11-1.13,4.38c-.75,1.27-1.81,2.27-3.16,2.99-1.35.72-2.92,1.08-4.69,1.08-1.3,0-2.5-.2-3.59-.6-1.1-.4-2-.91-2.73-1.52-.72-.61-1.17-1.2-1.33-1.78l.93-.43v10.87h-3.84Zm9.79-9.91c1.2,0,2.25-.22,3.16-.67.91-.44,1.62-1.05,2.14-1.81.52-.76.77-1.63.77-2.6s-.25-1.84-.76-2.6c-.51-.76-1.22-1.36-2.14-1.8-.92-.43-1.98-.65-3.18-.65s-2.23.22-3.16.65-1.65,1.03-2.17,1.8c-.52.76-.77,1.63-.77,2.6s.26,1.84.77,2.6c.52.76,1.24,1.37,2.17,1.81.93.44,1.98.67,3.16.67Z"/>
      <path class="cls-1" d="m826.14,321.73c-2,0-3.78-.36-5.33-1.08-1.55-.72-2.76-1.73-3.64-3.02-.88-1.29-1.32-2.75-1.32-4.38s.44-3.12,1.32-4.4c.88-1.28,2.09-2.28,3.64-3.01,1.55-.72,3.33-1.08,5.33-1.08s3.77.36,5.31,1.08c1.54.72,2.75,1.72,3.64,3.01.89,1.28,1.33,2.75,1.33,4.4s-.44,3.09-1.33,4.38c-.89,1.29-2.1,2.3-3.64,3.02-1.54.72-3.31,1.08-5.31,1.08Zm0-3.38c1.22,0,2.31-.22,3.28-.67.97-.44,1.74-1.05,2.31-1.81.57-.76.83-1.64.79-2.63.04-1.01-.22-1.9-.79-2.66-.57-.76-1.34-1.36-2.31-1.8-.97-.43-2.07-.65-3.28-.65s-2.29.22-3.27.65c-.98.43-1.75,1.04-2.31,1.81-.56.77-.83,1.66-.81,2.65-.02.99.25,1.87.81,2.63.56.76,1.33,1.37,2.31,1.81.98.44,2.07.67,3.27.67Z"/>
      <path class="cls-1" d="m845.1,321.42v-16.33h3.75l.06,5.79-.99-.43c.33-1.05.85-2.01,1.55-2.88.7-.87,1.53-1.55,2.48-2.06.95-.51,1.94-.76,2.97-.76.64,0,1.26.07,1.87.2.61.13,1.11.32,1.5.54l-1.02,4.06c-.39-.25-.89-.44-1.49-.57-.6-.13-1.17-.2-1.7-.2-.79,0-1.5.13-2.14.39-.64.26-1.18.61-1.63,1.05-.44.44-.79.93-1.02,1.47-.24.54-.36,1.11-.36,1.7v8.02h-3.84Z"/>
      <path class="cls-1" d="m864.62,308.62v-3.53h13.73v3.53h-13.73Zm4.55,12.8v-21.16h3.81v21.16h-3.81Z"/>
      <path class="cls-1" d="m909.04,321.73c-1.53,0-2.93-.15-4.2-.46-1.27-.31-2.43-.77-3.47-1.38-1.04-.61-2-1.36-2.87-2.25l2.35-3.22c1.32,1.36,2.66,2.34,4.03,2.93,1.36.59,2.81.88,4.34.88.89,0,1.74-.11,2.54-.33.81-.22,1.47-.54,1.98-.98s.77-.99.77-1.67c0-.43-.13-.79-.39-1.08-.26-.29-.61-.54-1.05-.74-.44-.21-.94-.38-1.49-.51-.55-.13-1.12-.24-1.7-.33-.59-.08-1.14-.17-1.66-.25-1.34-.17-2.54-.42-3.59-.77-1.05-.35-1.96-.78-2.71-1.3-.75-.52-1.32-1.14-1.7-1.87-.38-.73-.57-1.57-.57-2.53,0-1.01.24-1.92.71-2.73.48-.81,1.14-1.49,2-2.04.86-.56,1.85-.99,2.99-1.29,1.14-.3,2.36-.45,3.69-.45s2.65.14,3.81.43c1.16.29,2.17.7,3.05,1.24.88.54,1.62,1.19,2.22,1.95l-2.45,2.79c-.56-.62-1.19-1.15-1.89-1.58-.7-.43-1.47-.76-2.29-.98-.83-.22-1.67-.33-2.54-.33-.97,0-1.83.1-2.59.31-.75.21-1.35.51-1.8.9-.44.39-.67.87-.67,1.43,0,.5.15.91.45,1.25.3.34.71.62,1.22.85.52.23,1.13.42,1.83.57.7.15,1.47.28,2.29.39,1.2.19,2.35.41,3.45.67,1.1.26,2.08.61,2.91,1.05.84.44,1.5,1.02,2,1.72.5.7.74,1.59.74,2.66,0,1.45-.41,2.7-1.22,3.75-.82,1.05-1.96,1.86-3.42,2.43-1.47.57-3.17.85-5.11.85Z"/>
      <path class="cls-1" d="m929.77,328.54l4.34-7.99-.09,2.45-9.57-17.91h4.43l4.71,9.42c.5.91.93,1.78,1.32,2.6.38.83.66,1.59.82,2.29l-.74.03c.27-.64.58-1.38.95-2.23.36-.85.78-1.75,1.25-2.7l4.4-9.42h4.43l-8.64,16.45-3.56,7h-4.03Z"/>
      <path class="cls-1" d="m959.85,321.73c-1.84,0-3.51-.24-5-.73-1.5-.49-2.73-1.25-3.7-2.31l2.48-2.26c.74.74,1.64,1.31,2.7,1.7,1.05.39,2.22.59,3.5.59.45,0,.91-.03,1.36-.09.45-.06.89-.16,1.3-.29.41-.13.74-.32.99-.56.25-.24.37-.52.37-.85,0-.58-.43-1.01-1.3-1.3-.43-.14-.97-.28-1.6-.42-.63-.13-1.31-.26-2.03-.39-1.26-.23-2.38-.49-3.35-.77-.97-.29-1.79-.67-2.45-1.15-.5-.37-.88-.83-1.15-1.38-.27-.55-.4-1.18-.4-1.91,0-.76.21-1.44.62-2.03.41-.59.97-1.1,1.67-1.53.7-.43,1.53-.76,2.48-.98.95-.22,1.97-.33,3.07-.33.95,0,1.93.09,2.93.28,1,.19,1.96.46,2.87.84.91.37,1.68.86,2.32,1.46l-2.01,2.45c-.52-.37-1.12-.72-1.81-1.04-.69-.32-1.42-.57-2.18-.76-.76-.19-1.51-.28-2.23-.28-.45,0-.91.03-1.38.09s-.89.15-1.29.28c-.39.12-.71.3-.95.53-.24.23-.36.51-.36.84,0,.21.07.4.2.59.13.19.31.35.54.5.39.25.95.46,1.67.64.72.18,1.53.35,2.42.51,1.26.23,2.39.49,3.39.77,1,.29,1.83.67,2.49,1.15.52.35.91.76,1.18,1.22.27.46.4,1.02.4,1.66,0,1.1-.35,2.03-1.04,2.82-.69.79-1.62,1.39-2.77,1.81-1.16.42-2.48.64-3.97.64Z"/>
      <path class="cls-1" d="m973.46,308.62v-3.53h13.73v3.53h-13.73Zm4.55,12.8v-21.16h3.81v21.16h-3.81Z"/>
      <path class="cls-1" d="m1004.01,321.73c-2.05,0-3.86-.36-5.45-1.08-1.59-.72-2.82-1.71-3.7-2.97-.88-1.26-1.32-2.68-1.32-4.28,0-1.34.26-2.55.77-3.61.52-1.06,1.24-1.97,2.17-2.71.93-.74,2.01-1.32,3.25-1.74,1.24-.41,2.54-.62,3.9-.62s2.52.2,3.66.6c1.14.4,2.13.96,2.99,1.67.86.71,1.52,1.56,1.98,2.54.46.98.69,2.06.67,3.24l-.03,1.52h-16.36l-.71-2.7h13.88l-.5.43v-.68c-.1-.66-.42-1.24-.96-1.74-.54-.5-1.21-.88-2.01-1.15-.81-.27-1.67-.4-2.6-.4-1.22,0-2.31.17-3.28.51-.97.34-1.74.88-2.29,1.63-.56.74-.84,1.71-.84,2.91,0,1.03.31,1.95.93,2.74.62.8,1.49,1.41,2.6,1.84s2.41.65,3.87.65,2.58-.18,3.52-.54c.94-.36,1.72-.75,2.34-1.16l1.74,2.63c-.64.48-1.4.89-2.28,1.25-.88.36-1.82.65-2.84.87s-2.04.33-3.1.33Z"/>
      <path class="cls-1" d="m1021.48,321.42v-16.33h3.75l.06,4.18-1.08-.22c.25-.47.6-.96,1.05-1.46.45-.5,1.02-.96,1.69-1.38.67-.42,1.43-.76,2.26-1.02.84-.26,1.76-.39,2.77-.39s1.98.16,2.84.48c.86.32,1.57.83,2.14,1.53.57.7.93,1.6,1.1,2.7l-1.02-.22.25-.5c.29-.43.68-.88,1.16-1.35.49-.46,1.06-.89,1.74-1.29.67-.39,1.4-.72,2.2-.98.79-.26,1.64-.39,2.53-.39,1.65,0,2.97.3,3.95.9.98.6,1.69,1.43,2.12,2.48.43,1.05.65,2.25.65,3.59v9.64h-3.84v-9.17c0-.81-.13-1.52-.39-2.14-.26-.62-.67-1.09-1.22-1.43-.56-.33-1.27-.5-2.14-.5-.79,0-1.52.12-2.2.37-.68.25-1.28.59-1.8,1.02-.52.43-.91.94-1.19,1.53-.28.59-.42,1.21-.42,1.87v8.43h-3.84v-9.2c0-.81-.14-1.51-.43-2.11-.29-.6-.75-1.07-1.38-1.41-.63-.34-1.44-.51-2.43-.51-.72,0-1.39.13-2.01.4-.62.27-1.16.62-1.61,1.05s-.8.9-1.04,1.41c-.24.51-.36,1-.36,1.47v8.89h-3.84Z"/>
    </g>
    <path class="cls-1" d="m474.86,259.31c-11.35,0-21.51-2.27-30.46-6.81-8.96-4.54-16.02-10.72-21.19-18.54-5.17-7.82-7.76-16.65-7.76-26.49s2.58-18.83,7.76-26.58c5.17-7.76,12.2-13.91,21.1-18.45,8.89-4.54,18.89-6.81,29.99-6.81s20.87,1.64,30.08,4.92c9.21,3.28,16.58,7.88,22.14,13.81l-13.05,17.41c-2.9-2.9-6.43-5.52-10.6-7.85-4.16-2.33-8.61-4.19-13.34-5.58-4.73-1.39-9.43-2.08-14.1-2.08-7.19,0-13.5,1.36-18.92,4.07-5.42,2.71-9.65,6.4-12.68,11.07-3.03,4.67-4.54,10.03-4.54,16.08s1.61,11.42,4.82,16.08c3.22,4.67,7.57,8.36,13.05,11.07,5.49,2.71,11.64,4.07,18.45,4.07,5.68,0,10.81-.63,15.42-1.89,4.6-1.26,8.77-2.87,12.49-4.82,3.72-1.95,7.16-4,10.31-6.15l12.68,17.03c-6.31,4.54-13.81,8.42-22.51,11.64-8.7,3.22-18.42,4.82-29.14,4.82Z"/>
    <path class="cls-1" d="m598.79,259.31c-10.97,0-20.56-2.24-28.76-6.72-8.2-4.48-14.6-10.62-19.2-18.45-4.61-7.82-6.91-16.71-6.91-26.68s2.39-19.04,7.19-26.87c4.79-7.82,11.38-13.94,19.77-18.35,8.39-4.41,18.07-6.62,29.04-6.62,6.56,0,12.64.79,18.26,2.36,5.61,1.58,10.5,3.72,14.66,6.43,4.16,2.71,7.5,5.65,10.03,8.8,2.52,3.15,3.91,6.31,4.16,9.46h-6.05v-24.97h23.46v99.71h-23.65v-26.49l4.92.95c-.25,3.15-1.7,6.34-4.35,9.55-2.65,3.22-6.12,6.15-10.41,8.8-4.29,2.65-9.18,4.82-14.66,6.53s-11.32,2.55-17.5,2.55Zm5.87-20.62c7.31,0,13.78-1.35,19.39-4.07,5.61-2.71,9.96-6.43,13.05-11.16,3.09-4.73,4.64-10.06,4.64-15.99s-1.55-11.41-4.64-16.08c-3.09-4.66-7.44-8.32-13.05-10.97-5.61-2.65-12.08-3.97-19.39-3.97s-13.78,1.32-19.39,3.97c-5.61,2.65-9.97,6.31-13.06,10.97-3.09,4.67-4.64,10.03-4.64,16.08s1.54,11.26,4.64,15.99c3.09,4.73,7.44,8.45,13.06,11.16,5.61,2.71,12.08,4.07,19.39,4.07Z"/>
    <path class="cls-1" d="m747.68,259.31c-11.23,0-21.41-1.48-30.56-4.45-9.15-2.96-16.68-7.66-22.61-14.1l15.14-13.81c4.54,4.54,10.03,8.01,16.46,10.41,6.43,2.4,13.56,3.59,21.38,3.59,2.77,0,5.55-.19,8.32-.57,2.77-.38,5.42-.98,7.95-1.8,2.52-.82,4.54-1.95,6.05-3.41,1.51-1.45,2.27-3.18,2.27-5.2,0-3.53-2.65-6.18-7.95-7.95-2.65-.88-5.9-1.73-9.74-2.55-3.85-.82-7.98-1.61-12.39-2.37-7.7-1.39-14.51-2.96-20.43-4.73-5.93-1.76-10.91-4.1-14.95-7-3.03-2.27-5.36-5.08-7-8.42-1.64-3.34-2.46-7.22-2.46-11.64,0-4.67,1.26-8.8,3.78-12.39,2.52-3.59,5.93-6.72,10.22-9.37,4.29-2.65,9.33-4.64,15.14-5.96,5.8-1.32,12.04-1.99,18.73-1.99,5.8,0,11.76.57,17.88,1.7,6.12,1.14,11.95,2.84,17.5,5.11,5.55,2.27,10.28,5.24,14.19,8.89l-12.3,14.95c-3.15-2.27-6.84-4.38-11.07-6.34-4.23-1.95-8.67-3.5-13.34-4.64-4.67-1.13-9.21-1.7-13.62-1.7-2.78,0-5.58.19-8.42.57-2.84.38-5.46.95-7.85,1.7-2.4.76-4.32,1.83-5.77,3.22-1.45,1.39-2.18,3.09-2.18,5.11,0,1.26.41,2.46,1.23,3.59.82,1.13,1.92,2.15,3.31,3.03,2.39,1.51,5.8,2.81,10.22,3.88,4.41,1.07,9.33,2.11,14.76,3.12,7.69,1.39,14.6,2.97,20.72,4.73,6.12,1.77,11.19,4.1,15.23,7,3.15,2.15,5.55,4.64,7.19,7.47,1.64,2.84,2.46,6.21,2.46,10.12,0,6.69-2.11,12.43-6.34,17.22-4.23,4.79-9.87,8.48-16.93,11.07-7.07,2.58-15.14,3.88-24.22,3.88Z"/>
    <path class="cls-1" d="m865.18,259.31c-11.23,0-21.41-1.48-30.56-4.45-9.15-2.96-16.68-7.66-22.61-14.1l15.14-13.81c4.54,4.54,10.03,8.01,16.46,10.41,6.43,2.4,13.56,3.59,21.38,3.59,2.77,0,5.55-.19,8.32-.57,2.77-.38,5.42-.98,7.95-1.8,2.52-.82,4.54-1.95,6.05-3.41,1.51-1.45,2.27-3.18,2.27-5.2,0-3.53-2.65-6.18-7.95-7.95-2.65-.88-5.9-1.73-9.74-2.55-3.85-.82-7.98-1.61-12.39-2.37-7.7-1.39-14.51-2.96-20.43-4.73-5.93-1.76-10.91-4.1-14.95-7-3.03-2.27-5.36-5.08-7-8.42-1.64-3.34-2.46-7.22-2.46-11.64,0-4.67,1.26-8.8,3.78-12.39,2.52-3.59,5.93-6.72,10.22-9.37,4.29-2.65,9.33-4.64,15.14-5.96,5.8-1.32,12.04-1.99,18.73-1.99,5.8,0,11.76.57,17.88,1.7,6.12,1.14,11.95,2.84,17.5,5.11,5.55,2.27,10.28,5.24,14.19,8.89l-12.3,14.95c-3.15-2.27-6.84-4.38-11.07-6.34-4.23-1.95-8.67-3.5-13.34-4.64-4.67-1.13-9.21-1.7-13.62-1.7-2.78,0-5.58.19-8.42.57-2.84.38-5.46.95-7.85,1.7-2.4.76-4.32,1.83-5.77,3.22-1.45,1.39-2.18,3.09-2.18,5.11,0,1.26.41,2.46,1.23,3.59.82,1.13,1.92,2.15,3.31,3.03,2.39,1.51,5.8,2.81,10.22,3.88,4.41,1.07,9.33,2.11,14.76,3.12,7.69,1.39,14.6,2.97,20.72,4.73,6.12,1.77,11.19,4.1,15.23,7,3.15,2.15,5.55,4.64,7.19,7.47,1.64,2.84,2.46,6.21,2.46,10.12,0,6.69-2.11,12.43-6.34,17.22-4.23,4.79-9.87,8.48-16.93,11.07-7.07,2.58-15.14,3.88-24.22,3.88Z"/>
    <path class="cls-1" d="m978.88,233.07c-9.14,0-17.24-1.65-24.31-4.95-7.07-3.3-12.6-7.89-16.61-13.78-4.01-5.89-6.01-12.55-6.01-20s2-14.23,6.01-20.07c4-5.84,9.54-10.41,16.61-13.71,7.07-3.3,15.17-4.95,24.31-4.95s17.22,1.65,24.24,4.95c7.02,3.3,12.55,7.87,16.61,13.71,4.05,5.84,6.08,12.53,6.08,20.07s-2.03,14.11-6.08,20c-4.05,5.89-9.59,10.48-16.61,13.78-7.02,3.3-15.1,4.95-24.24,4.95Zm0-15.4c5.56,0,10.55-1.01,14.98-3.04,4.43-2.02,7.94-4.78,10.53-8.27,2.59-3.48,3.79-7.49,3.6-12.01.19-4.62-1.01-8.67-3.6-12.15-2.59-3.48-6.1-6.22-10.53-8.2-4.43-1.98-9.42-2.97-14.98-2.97s-10.44.99-14.91,2.97c-4.48,1.98-7.98,4.73-10.53,8.27-2.54,3.53-3.77,7.56-3.67,12.08-.09,4.52,1.13,8.53,3.67,12.01,2.54,3.49,6.05,6.24,10.53,8.27,4.47,2.03,9.44,3.04,14.91,3.04Z"/>
    <path class="cls-1" d="m978.94,202.38c-2.85,0-5.04-.69-6.57-2.08-1.54-1.39-2.3-3.35-2.3-5.9,0-2.4.79-4.34,2.36-5.84,1.57-1.5,3.74-2.25,6.52-2.25s4.92.69,6.46,2.08c1.53,1.39,2.3,3.39,2.3,6.01,0,2.32-.79,4.23-2.36,5.73-1.57,1.5-3.71,2.25-6.4,2.25Z"/>
    <path class="cls-1" d="m271.7,171.62c-3.06-4.94-7.18-8.84-12.37-11.7-5.18-2.86-10.89-4.3-17.11-4.3h-56.43v49.03h-30.95c-3.54,0-6.42,2.87-6.42,6.42v4.96c0,3.54,2.87,6.42,6.42,6.42h30.95v36.86h19.26v-36.88h34.96c6.71,0,12.79-1.5,18.22-4.52,5.43-3.01,9.8-7.11,13.11-12.29,3.31-5.18,4.96-10.98,4.96-17.4s-1.53-11.65-4.59-16.59Zm-18.14,24.88c-1.63,2.47-3.83,4.44-6.59,5.92-2.77,1.48-5.78,2.22-9.04,2.22h-32.88v-31.25h32.88c3.26,0,6.27.67,9.04,2,2.76,1.33,4.96,3.11,6.59,5.33,1.63,2.22,2.44,4.76,2.44,7.63s-.81,5.68-2.44,8.15Z"/>
    <rect class="cls-1" x="931.96" y="241.51" width="120.18" height="17.79" rx="1.96" ry="1.96"/>
    <path class="cls-1" d="m356.61,151.23c.13-.13.27-.32.45-.38.04,0,.02.09,0,.15-.04.12-.08.26-.15.37-.41.54-1.01.9-1.56,1.29-.91.6-1.87,1.13-2.85,1.6-.38.18-.76.35-1.14.52,1.35-1.41,2.18-3.36,2.34-5.54-.33,2.24-1.4,4.48-3.17,5.89-.9.37-1.81.69-2.74.94,1.82-1.84,3.22-6.8,3.47-8.16-.39,1.3-2.44,7.54-4.4,8.37-.16.03-.31.06-.47.09-.18-.01-.35-.07-.52-.2,2.03-1.63,3.23-5.33,3.83-7.45-.78,1.97-2.14,5.71-4.12,7.21-.28-.27-.52-.58-.74-.92.47-.71.78-1.56,1.01-2.34.47-1.73.65-3.51.63-5.28-.14,1.75-.39,3.51-.92,5.19-.2.6-.5,1.4-.93,2.09-.13-.22-.26-.45-.38-.68-.81-1.63-1.51-3.37-1.82-5.17-.09-.89.03-1.86-.2-2.76.15.92-.04,1.85,0,2.78.24,1.86.87,3.63,1.69,5.31.15.29.3.57.47.85-.3.42-.65.76-1.07.96-1.34-1.64-1.47-6.62-1.57-7.99-.07,1.52-.15,6.22,1.2,8.11-.12.03-.25.04-.39.04-.17-.07-.34-.16-.5-.25-1.77-1.45-2.31-7.42-2.59-9.38.04,1.43.29,6.27,1.55,8.66-1.53-1.3-2.49-3.38-2.65-6.08-.06,2.85,1,5.36,2.99,6.78-2.4-1.01-4.45-2.91-6.13-4.86,2.01,2.71,4.83,5.28,8.27,5.85.5.13,1.03.21,1.59.23-.2,2.47-1.66,20.44-1.11,26.04-.26-.1-.47-.13-.51,0-.12.35-.1.79-.1.79l-.02.42s-.23,5.1.82,5.62c1.05.52,1.17-.26,1.29-1.38.12-1.12-.12-4.49-.35-4.75-.09-.1-.34-.28-.61-.44-.52-4.29.57-19.96,1.1-26.29.06,0,.12,0,.18,0,1.88,0,3.5-.59,4.77-1.59,1.73-.71,3.38-1.62,4.92-2.69.54-.42,1.13-.82,1.52-1.4.34-.78.03-.75-.38-.18Zm-11.02,5.24s.02.01.03.02c-.07,0-.14.01-.21.02.04-.03.09-.05.13-.08.02.01.03.03.05.04Zm-.98-1.12c.19.29.4.56.64.81-.26.16-.52.27-.8.35-.32.04-.6-.06-.85-.25.39-.23.72-.54,1-.9Zm3.53,1c.05-.01.1-.03.16-.04-.05.01-.1.03-.16.04Z"/>
    <g>
      <path class="cls-1" d="m353.04,136.37c.34-.63.59-.97.41.03-.24.78-.84,1.4-1.36,2.02-1.3,1.42-2.73,2.76-4.28,3.94,1.39-2.39,1.84-5.47,1.56-8.28.09,3.06-.58,6.5-2.42,8.9-.91.63-1.86,1.2-2.85,1.69,1.77-2.89,2.29-10.57,2.26-12.04-.11,1.38-1.11,10.76-3.13,12.45-.21.09-.41.18-.62.26-.2,0-.41-.07-.63-.23.95-1.33,1.44-2.93,1.84-4.49.52-2.17.82-4.38.95-6.59-.31,2.19-.69,4.38-1.28,6.51-.44,1.49-.9,3.04-1.83,4.3-.39-.36-.74-.78-1.07-1.23,1.2-3.23.72-7.83.29-10.9.19,2.9.51,7.38-.57,10.49-.25-.37-.48-.76-.71-1.14-1.21-2.16-2.33-4.44-2.99-6.83-.24-1.21-.34-2.49-.76-3.67.32,1.22.37,2.46.55,3.72.59,2.46,1.63,4.78,2.85,6.98.28.48.57.96.88,1.42-.19.47-.42.9-.7,1.27-.09.12-.18.23-.27.32-1.92-2.17-3.13-9.6-3.44-10.96.16,1.66,1.11,8.82,3.09,11.22-.17.08-.34.12-.5.1-.21-.08-.41-.16-.61-.26-2.32-1.73-4.44-11.37-4.83-12.74.24,1.48,1.59,8.75,3.59,11.94-2.33-1.85-3.71-5.16-4.28-8.15.43,3.56,2.08,7.41,5.03,9.13-3.15-1-6.02-3.66-8.15-5.93,2.52,3.1,6.3,6.58,10.43,6.75.8.13,1.66.13,2.59-.04,2.26-.35,3.94-1.48,5.12-3.03,1.89-1.35,3.58-2.97,5.07-4.73.5-.66,1.08-1.33,1.29-2.15.15-1.08-.21-.76-.5-.04Zm-11.33,9.07c.08.06.16.1.24.14-.18.06-.37.11-.55.16.1-.09.21-.19.31-.3Zm-1.94-.23c.25-.35.46-.74.64-1.15.29.4.62.77.99,1.12-.7.82-1.35.85-1.94.37.1-.1.21-.21.31-.34Zm-.67.62s.03.03.05.04c-.03,0-.05-.01-.08-.02.01,0,.02-.02.04-.02Zm4.11-.22c.08-.04.15-.09.23-.15.8-.36,1.57-.77,2.31-1.22-.72.61-1.56,1.08-2.54,1.38Z"/>
      <path class="cls-1" d="m346.91,183.84c-.12-.13-.44-.33-.78-.51-1.43-5.73-3.33-25.94-4.22-36.96l-.56.05c.11,1.3,2.33,28.67,4.15,36.65-.31-.1-.55-.11-.58.08-.06.5.05,1.12.05,1.12l.06.59s.79,7.17,2.08,7.72c1.29.55,1.26-.56,1.16-2.15-.1-1.59-1.06-6.27-1.38-6.59Z"/>
    </g>
    <path class="cls-1" d="m340.77,153.41c1.38-1.16,2.61-2.52,3.66-3.97.35-.55.76-1.1.89-1.76.06-.84-.22-.62-.4-.02.04-.09.32-.74.33-.37.04.79-.56,1.41-.99,2.02-.63.82-1.33,1.58-2.07,2.31-.29.28-.6.56-.9.83.84-1.86.99-4.12.56-6.2.28,2.35-.07,4.95-1.32,6.86-.64.53-1.32,1.03-2.02,1.46,1.13-2.4,1-7.96.86-9.16,0,1.12-.18,8.21-1.65,9.6-.15.08-.3.16-.45.23-.14.02-.29-.01-.44-.09,1.4-2.19,1.43-6.52,1.38-8.56-.11,1.68-.27,3.37-.6,5.02-.25,1.15-.51,2.33-1.13,3.32-.31-.22-.6-.49-.87-.78.72-2.53-.02-6.01-.57-8.22.31,1.8.54,3.63.52,5.46-.03.8-.06,1.64-.25,2.42-.2-.23-.39-.47-.58-.71-1.11-1.52-2.17-3.14-2.88-4.89-.29-.89-.46-1.86-.88-2.72.34.9.45,1.84.68,2.79.64,1.83,1.63,3.49,2.77,5.05.25.32.49.64.76.94-.12.34-.27.67-.47.98-.05.08-.11.15-.16.21-1.64-1.47-3.11-6.84-3.48-7.89.3,1.47,1.43,6.49,3.16,8.15-.14.07-.28.1-.42.08-.12-.03-.24-.07-.36-.11-1.94-1-4.32-8.09-4.77-9.15.3,1.18,1.77,6.23,3.52,8.54-1.84-1.19-3.14-3.42-3.81-5.63.57,2.64,2.05,5.19,4.28,6.32-2.43-.57-4.62-2.08-6.53-3.64,2.25,2.2,5.51,4.45,8.75,4.23.46.02.95-.01,1.45-.11.25,1.38,3.84,21.33,5.83,27.18-.23-.04-.4-.01-.4.12-.01.38.12.84.12.84l.09.44s1.13,5.33,2.19,5.63.96-.53.77-1.72c-.19-1.19-1.28-4.63-1.55-4.84-.1-.08-.33-.19-.6-.3-1.58-4.3-4.72-20.8-5.92-27.48.03,0,.06-.01.09-.02,1.75-.45,3-1.45,3.84-2.74Zm-2.28,1.65c.19-.11.37-.24.55-.36-.17.13-.36.25-.55.36Zm-.29.16c.08-.04.15-.08.23-.13-.08.04-.15.09-.23.13Zm-1.56.32s-.1.04-.15.06c.03-.03.05-.06.08-.09.02.01.05.02.07.03Zm-1.19-.93c.24.25.5.48.78.69-.46.6-.93.68-1.39.43.25-.33.45-.71.6-1.12Z"/>
    <path class="cls-1" d="m371.52,151.13c.18-.12.38-.3.6-.32-.03,1.23-4.7,2.42-5.84,2.73-.5.12-1,.24-1.51.34,1.88-1.24,3.29-3.22,4-5.64-.96,2.62-2.71,4.73-4.97,5.82-1.08.19-2.16.32-3.25.37,2.43-1.54,5.13-6.62,5.83-8.23-.72,1.35-4.4,7.7-6.79,8.25-.21,0-.42,0-.63,0-.2-.06-.38-.17-.55-.36,1.19-.63,2.16-1.63,3.01-2.66,1.18-1.46,2.18-3.04,3.02-4.7-1.3,2-3.73,5.86-6.27,7.04-.26-.38-.46-.8-.62-1.24,2.06-1.96,3.1-5.61,3.64-8.04-.83,2.7-1.8,5.57-3.77,7.66-.1-.29-.19-.58-.27-.86-.51-2-.88-4.1-.79-6.16.11-1.03.48-2.05.44-3.1-.05,1.06-.47,2.04-.63,3.08-.17,2.47.17,4.98.97,7.32-.56.47-1.04.75-1.45.87-1.11-2.13-.08-7.73.14-9.26-.44,1.68-1.6,6.97-.54,9.32-.19,0-.36-.03-.52-.09-.17-.12-.33-.24-.49-.38-1.64-1.94-.76-9.23-.63-11.02-.28,1.56-1.15,7.14-.27,10.06-1.52-1.93-2.02-4.63-1.56-7.47-.74,3.24-.1,6.32,1.89,8.35-2.52-1.7-4.39-4.31-5.82-6.97,1.62,3.5,4.17,7.04,7.91,8.45.5.24,1.04.44,1.63.59-.35,1.16-6.63,22.1-7.37,28.63-.27-.19-.52-.28-.6-.14-.21.36-.29.85-.29.85l-.12.46s-1.46,5.59-.42,6.42c1.04.82,1.36-.01,1.75-1.23.39-1.22.93-5.01.73-5.35-.08-.14-.33-.4-.61-.65.45-4.94,5.34-21.99,7.41-28.86l-.25-.08c.16.04.32.08.48.11,2.07.44,3.99.18,5.63-.61,2.14-.4,4.23-1.07,6.11-1.83.7-.33,1.45-.64,2.02-1.19.56-.79.21-.81-.38-.29Zm-13.35,3.27c-.14-.01-.27-.03-.41-.04.09-.03.18-.07.27-.1.04.05.09.1.14.14Zm-.91-1.61s.02.07.04.1c.15.41.32.75.49,1.03-.33.12-.65.19-.98.2-.39-.03-.69-.22-.92-.51.5-.19.95-.47,1.37-.82Zm2.26,2.06s.04,0,.06-.01c.74,0,1.49-.04,2.24-.11-.73.14-1.5.19-2.3.13Z"/>
    <g>
      <path class="cls-1" d="m380.94,149.06c.6-.4.94-.54.34.22-.58.55-1.39.81-2.13,1.1-1.77.6-3.62,1.1-5.5,1.41,2.24-1.37,3.99-3.73,4.99-6.3-1.29,2.73-3.4,5.28-6.04,6.45-1.09.13-2.18.19-3.27.16,2.81-1.65,6.58-7.82,7.24-9.16-.74,1.2-5.66,8.6-8.19,9.11-.23-.02-.46-.04-.69-.07-.17-.09-.31-.24-.43-.45,1.4-.69,2.53-1.81,3.55-2.95,1.41-1.6,2.64-3.34,3.73-5.16-1.23,1.72-2.52,3.4-3.97,4.94-1.04,1.07-2.13,2.16-3.48,2.8-.2-.48-.33-.99-.43-1.51,2.46-2.18,4.02-6.25,4.97-9.06-1.09,2.56-2.74,6.47-5.05,8.6-.06-.41-.1-.82-.14-1.22-.16-2.36-.18-4.78.26-7.11.3-1.13.78-2.27.92-3.46-.22,1.19-.76,2.27-1.12,3.41-.53,2.36-.6,4.79-.45,7.19.04.5.09,1.01.17,1.5-.38.31-.78.58-1.19.77-.13.06-.25.11-.37.14-.79-2.65,1.31-9.37,1.65-10.76-.61,1.58-2.81,7.95-2.07,10.82-.19,0-.36-.05-.5-.14-.16-.16-.31-.33-.45-.51-1.31-2.5.92-11.43,1.19-12.85-.45,1.44-2.35,8.11-1.94,11.66-1.27-2.53-1.14-5.87-.32-8.78-1.18,3.33-1.29,7.22.56,9.9-2.36-2.22-3.8-5.69-4.74-8.58.94,3.83,2.88,8.38,6.45,10.31.66.46,1.43.83,2.33,1.1,2.13.7,4.12.49,5.86-.3,2.24-.3,4.45-.91,6.55-1.73.74-.34,1.55-.64,2.12-1.24.62-.85.19-.78-.41-.28Zm-14.4,2.75c.11-.03.22-.07.34-.11.04.06.07.13.11.18-.15-.02-.3-.05-.45-.08Zm-1.35-1.13c.39-.19.76-.43,1.11-.71.09.47.22.92.4,1.37-.98.37-1.57.12-1.89-.53.12-.03.25-.08.38-.13Zm-.82.22s.01.03.02.05c-.02-.02-.04-.03-.06-.05.01,0,.03,0,.04,0Zm3.79,1.62c.08,0,.16,0,.24-.02.86.05,1.71.04,2.57-.01-.89.18-1.83.21-2.81.03Z"/>
      <path class="cls-1" d="m366.14,152.38c-.47,1.15-10.3,25.21-12.11,32.74-.24-.22-.46-.34-.56-.19-.27.4-.44.97-.44.97l-.2.52s-2.39,6.4-1.47,7.43c.92,1.03,1.37.09,1.96-1.3s1.76-5.75,1.61-6.16c-.06-.16-.25-.48-.49-.78,1.19-5.45,8.22-23.34,12.19-33.02l-.5-.21Z"/>
    </g>
    <path class="cls-1" d="m343.1,187.16c-1.41-.45-5.78-1.13-6.16-.95-.15.07-.45.3-.72.57-5.43-.61-23.53-5.7-33.35-8.61l-.1.34c.04-.17.08-.35.12-.53.48-2.19.09-4.14-.85-5.79-.5-2.18-1.3-4.3-2.3-6.3-.4-.7-.77-1.48-1.42-1.99-.89-.53-.8-.13-.24.43-.46-.56-.61-.88.2-.35.6.53.92,1.3,1.28,2.01.75,1.69,1.41,3.47,1.89,5.29-1.54-2.06-3.98-3.55-6.61-4.29,2.82,1,5.47,2.84,6.86,5.31.23,1.07.39,2.15.47,3.23-1.87-2.61-8.21-5.69-9.61-6.22,1.28.63,8.91,4.71,9.66,7.16,0,.23,0,.47,0,.7-.07.18-.2.33-.4.47-.8-1.3-1.99-2.31-3.2-3.21-1.7-1.23-3.51-2.28-5.4-3.16,1.8,1.04,3.57,2.15,5.2,3.42,1.14.92,2.31,1.89,3.06,3.16-.45.25-.93.44-1.43.59-2.36-2.2-6.47-3.33-9.31-3.98,2.62.82,6.58,2.04,8.87,4.1-.38.1-.77.19-1.15.27-2.28.41-4.65.69-6.97.5-1.14-.18-2.3-.54-3.48-.55,1.18.1,2.29.52,3.45.76,2.36.28,4.74.08,7.07-.33.48-.1.95-.2,1.42-.32.34.35.64.71.87,1.11.07.12.13.24.17.35-2.5,1.06-9.22-.3-10.64-.5,1.64.45,8.02,1.94,10.74.92.02.19-.01.36-.09.52-.15.18-.3.34-.46.5-2.32,1.56-11.18.3-12.63.17,1.48.3,8.14,1.47,11.56.69-2.32,1.52-5.57,1.77-8.53,1.25,3.41.83,7.18.5,9.6-1.6-1.93,2.57-5.16,4.37-7.92,5.62,3.68-1.35,7.91-3.78,9.45-7.51.28-.52.51-1.09.68-1.72,1.19.35,25.56,7.56,33.08,8.56-.2.26-.29.49-.13.58.41.23.99.33.99.33l.53.14s6.46,1.69,7.38.67c.92-1.02-.05-1.37-1.46-1.81Zm-40.98-8.82c-.04-.1-.09-.21-.13-.31.06-.04.12-.09.17-.13,0,.15-.02.3-.03.44Zm-.97,1.48c-.22-.37-.5-.72-.8-1.04.45-.14.88-.31,1.3-.54.46.93.26,1.55-.34,1.94-.04-.11-.09-.23-.16-.35Zm.28.78s.03-.02.05-.02c-.01.02-.03.04-.04.06,0-.01,0-.02,0-.04Zm1.22-3.95c-.01-.07-.02-.14-.04-.22-.03-.85-.12-1.7-.25-2.54.26.86.37,1.78.3,2.75Z"/>
    <path class="cls-1" d="m342.06,187.08c-1.48-.07-5.87.38-6.2.66-.13.11-.35.41-.55.73-5.4.8-24.21.53-34.44.23v.35c-.01-.18-.02-.36-.03-.54-.1-2.23-.97-4.02-2.31-5.38-1.05-1.98-2.36-3.83-3.84-5.5-.57-.57-1.12-1.23-1.88-1.56-1-.29-.81.08-.13.48-.59-.42-.81-.7.1-.39.71.36,1.22,1.02,1.75,1.61,1.18,1.44,2.26,2.99,3.17,4.62-2.01-1.59-4.76-2.4-7.48-2.44,2.97.24,5.99,1.33,7.97,3.35.5.98.93,1.98,1.29,3.01-2.49-2.03-9.39-3.38-10.88-3.53,3.4.78,6.88,1.66,9.94,3.37.61.37,1.01.71,1.22,1.03.07.23.13.46.19.69-.02.2-.12.4-.27.6-1.11-1.06-2.52-1.72-3.92-2.28-1.96-.75-3.98-1.3-6.03-1.67,2.01.54,4,1.16,5.91,1.98,1.34.6,2.73,1.24,3.78,2.28-.29.28-.68.56-1.15.87-.03.02-.07.04-.1.06-2.85-1.52-7.09-1.55-10.01-1.46,2.73.12,6.86.28,9.61,1.68-2.37,1.32-4.98,2.31-7.63,2.83-1.14.12-2.36.07-3.5.36,1.17-.21,2.35-.08,3.53-.15,2.35-.34,4.6-1.13,6.75-2.13.43-.22.87-.43,1.29-.67.42.25.8.53,1.13.85.1.1.19.21.26.31-.33.25-.77.46-1.26.65-2.93,1.03-6.09,1.3-9.17,1.58,1.7,0,8.25-.18,10.62-1.87.06.18.08.35.05.52-.1.21-.2.41-.32.6-1.84,2.1-10.73,3.15-12.16,3.41,1.51-.09,8.25-.67,11.35-2.3-1.86,2.07-4.93,3.14-7.92,3.4,3.51-.07,7.07-1.37,8.88-4.02-1.19,2.96-3.83,5.53-6.22,7.47,3.21-2.25,6.68-5.68,7.2-9.68.14-.57.22-1.19.22-1.84.75.02,10.27.29,19.37.29,6,0,11.81-.12,14.8-.5-.12.3-.16.55.02.59.46.11,1.04.07,1.04.07h.55s6.68-.02,7.31-1.24-.4-1.31-1.87-1.38Zm-41.84,2.04c-.07-.11-.15-.21-.24-.33.06-.07.11-.14.15-.21.04.18.07.35.09.53Zm.04-1.85c-.03-.06-.06-.12-.1-.19-.25-.81-.55-1.61-.89-2.38.47.76.81,1.62.99,2.57Zm-1.68,2.67c.4-.25.77-.53,1.12-.86.69.83.65,1.47.18,1.97-.07-.1-.16-.21-.25-.32-.31-.3-.66-.57-1.04-.8Zm1.52,1.49s.02-.02.03-.03c0,.02-.01.04-.02.06,0,0,0-.02-.01-.03Z"/>
    <path class="cls-1" d="m339.34,188.14c-1.2.45-4.49,2.41-4.63,2.77-.06.15-.11.51-.13.88-4.13,2.74-20.5,9.58-27.15,12.26l.05.12c-.05-.11-.11-.22-.17-.32-.94-1.88-2.34-3.2-3.97-3.99-1.66-1.43-3.51-2.66-5.27-3.64-.7-.34-1.41-.73-2.19-.83-.97.05-.76.34.01.48-.72-.19-.9-.37-.02-.39.76.13,1.43.55,2.1.92,1.07.61,2.1,1.31,3.08,2.06.4.31.8.63,1.2.96-2.14-.69-4.57-.55-6.89.4,2.65-.89,5.39-.84,7.66.25.82.72,1.61,1.49,2.33,2.3-2.71-.95-8.4.12-10.09.59,3.06-.5,6.25-.92,9.32-.41.62.12,1.07.3,1.36.52.14.18.27.35.41.53.07.19.08.4.05.64-2.98-1.18-6.45-.67-9.52-.12,2.38-.23,6.91-.76,9.43.49-.1.31-.25.66-.47,1.05-.04.07-.08.13-.12.2-.96-.11-1.97,0-2.88.17-1.98.4-3.88,1.12-5.66,2.03.92-.39,1.86-.74,2.82-1.03,1.28-.4,3.63-1.01,5.51-.84-1.28,2-2.93,3.81-4.82,5.24-.87.56-1.9.9-2.69,1.59.85-.63,1.89-.91,2.8-1.43,2.04-1.42,3.78-3.25,5.12-5.35.61.1,1.15.29,1.57.63-.99,2.2-5.98,4.87-7.31,5.65,1.58-.7,6.38-3.09,7.6-5.36.1.12.2.26.27.41.01.2.01.39,0,.59-.52,2.53-6.37,6.17-8.21,7.42,1.42-.77,6.32-3.58,8.03-6.09-.55,2.4-2.36,4.48-4.86,5.9,2.98-1.44,4.99-3.86,5.34-6.66.26,3.01-.65,6.12-1.8,8.87,1.71-3.43,2.87-7.58,1.68-11.36-.13-.57-.32-1.15-.59-1.73,1.18-.47,21.4-8.65,26.94-12.15.03.33.1.58.26.56.41-.06.85-.3.85-.3l.43-.19s5.28-2.36,5.27-3.69c-.01-1.33-.86-1.05-2.05-.6Zm-34.56,13.06c.56.47,1.06,1.04,1.5,1.68,0,0-.01-.01-.02-.02-.45-.58-.95-1.13-1.48-1.66Zm2.21,3.37c-.07-.04-.15-.09-.22-.13.01-.06.02-.12.03-.18.07.1.13.21.2.31Zm-.87,1.37s.03-.05.05-.08c.23-.38.39-.72.49-1.03.29.18.55.39.77.64.22.32.26.67.17,1.04-.45-.29-.96-.47-1.48-.58Zm1.82.82s0,0,0-.01c0,0,0,.01,0,.02,0,0,0,0,0,0Z"/>
    <g>
      <path class="cls-1" d="m305.03,213.38c-.99-.75-2.09-1.15-3.24-1.28-1.84-.82-3.82-1.37-5.79-1.69-.71-.07-1.47-.21-2.17.02-.9.37-.43.47.21.38-.59.02-1.02,0-.18-.3.69-.18,1.41-.01,2.11.09,1.64.34,3.28.81,4.85,1.45-2.54.02-5.19,1.18-7.23,2.52,2.34-1.3,5.32-2.48,8.05-2.15.87.41,1.72.87,2.51,1.4-3.04-.05-9.53,3.02-10.57,3.63,1.01-.46,9-3.89,11.2-3.17.16.12.33.24.49.36.08.15.09.33.05.56-2.94-.36-8.14,1.93-10,2.83,1.87-.73,3.76-1.4,5.7-1.91,1.37-.33,2.79-.68,4.2-.55-.15.46-.35.91-.58,1.34-3.12.53-6.57,2.92-8.89,4.61,1.84-1.2,3.74-2.31,5.74-3.21.94-.39,1.93-.81,2.94-1.02-.22.38-.46.76-.7,1.12-1.28,1.85-2.68,3.68-4.34,5.21-.87.7-1.85,1.34-2.63,2.17.85-.77,1.82-1.35,2.75-2.02,1.74-1.5,3.2-3.28,4.51-5.16.31-.46.61-.92.88-1.4.41-.06.83-.07,1.26-.03.14.01.27.03.38.06-1.03,2.42-6.66,6.69-7.51,7.43,1.41-.96,6.72-4.72,7.85-7.28.12.08.22.18.27.3.02.21.03.42.02.64-.56,2.54-7.58,8.43-8.4,9.22.99-.75,6.39-4.98,8.23-7.92-.61,2.55-2.73,5.02-4.91,6.77,2.69-1.86,5.16-4.8,5.42-7.77.38,2.93-.6,5.97-1.64,8.69,1.44-3.07,2.94-7.56,1.41-10.81-.34-1.09-1.05-2.15-2.25-3.13Zm-1.9-.61c.58.21,1.14.51,1.67.91.17.14.32.28.47.42-.07-.05-.16-.09-.25-.12-.6-.44-1.24-.84-1.89-1.2Zm2.58,2.26c.12.11.24.23.36.35-.12-.04-.25-.08-.38-.11.01-.09.02-.17.02-.25Zm.49,1.79c-.36-.02-.73,0-1.11.04.2-.39.38-.8.52-1.23.93.16,1.2.63,1.04,1.28-.13-.04-.28-.07-.45-.1Zm.8.23s.02-.05.02-.08c0,.03.01.07.02.11-.02,0-.03-.02-.04-.03Z"/>
      <path class="cls-1" d="m339.44,190.44c-1.24.78-4.64,3.57-4.78,3.95-.05.14-.1.46-.11.79-4.07,3.61-19.64,13.97-28.18,19.51l.27.41c1.01-.65,22.22-14.43,27.94-19.31.04.27.13.44.29.38.43-.18.89-.54.89-.54l.45-.31s5.47-3.77,5.42-4.97c-.05-1.21-.93-.69-2.18.09Z"/>
    </g>
    <path class="cls-1" d="m405.7,178.15c-2.82.52-5.53.07-7.5-1.41,2.94.83,8.52-.16,10.06-.47-1.56.14-9.06,1.21-11.04-.42-.13-.15-.26-.31-.38-.47-.07-.15-.1-.32-.1-.51,2.38,1,7.65-.26,9.31-.73-1.54.26-7.09,1.4-9.25.34.03-.1.07-.21.12-.33.18-.4.43-.78.72-1.13.35.11.7.2,1.05.3,2.06.47,4.18.72,6.29.51,1.03-.19,2.01-.63,3.07-.7-1.05-.02-2.06.38-3.09.5-2.35.11-4.78-.21-7.03-.93,1.87-1.98,5.23-3.13,7.56-3.91-2.42.59-6.03,1.7-7.95,3.79-.08-.03-.16-.05-.23-.08-.41-.16-.75-.33-1.03-.51,1.13-2.57,4.95-5.08,6.92-6.42-1.64.87-3.21,1.91-4.64,3.12-1.01.87-1.99,1.86-2.6,3.07-.17-.16-.3-.32-.37-.5,0,0,0-.02,0-.03-.01-.23-.02-.47-.02-.7.09-.36.32-.76.7-1.24,2.03-2.37,4.74-4.09,7.41-5.66-1.43.63-6.6,3.51-8.11,6,.03-1.09.13-2.18.3-3.26,1.05-2.28,3.12-4.07,5.72-5.08-2.4.76-4.36,2.21-5.56,4.12.09-.51.2-1.01.31-1.51.28-1.14,1.39-5.85,2.61-5.9-.02.22-.19.42-.31.6.54-.64.44-.92-.29-.37-.54.58-.83,1.33-1.15,2.04-.72,1.89-1.35,4-1.71,6.14-.76,1.66-.98,3.58-.49,5.64.03.17.08.32.12.48l-.08-.25c-6.82,2.2-23.77,7.44-28.7,7.99-.26-.28-.53-.52-.67-.59-.35-.19-4.12.42-5.33.84-1.21.42-2.04.75-1.19,1.78.84,1.03,6.41-.54,6.41-.54l.46-.13s.5-.09.85-.31c.14-.09.04-.32-.15-.6,6.51-.87,27.32-7.57,28.47-7.94.16.58.37,1.12.62,1.61,1.48,3.71,5.07,6.19,8.61,7.74-2.68-1.38-5.33-3.19-7.08-5.68,2.07,1.95,5.16,2.53,8.39,1.72Zm-8.44-5.26c-.34.42-.61.88-.78,1.38-.3-.23-.5-.52-.53-.91,0-.33.07-.67.19-1.01.36.22.74.39,1.13.54Zm-1.53-.81s.04.03.06.05c-.04.1-.08.2-.1.29-.02-.14-.04-.28-.05-.43.03.03.06.06.09.09Zm-.49-3.72c-.06.75-.09,1.5-.07,2.24,0,.02,0,.04-.01.06-.08-.8-.05-1.57.08-2.3Z"/>
    <path class="cls-1" d="m420.15,118.9c3.21.2,6.43-1.83,8.65-4.57-2.04,2.21-4.79,3.99-7.57,4.19,3.21-1.46,7.84-6.46,8.81-7.58-1.1,1-7.45,7.43-10.22,7.55-.21-.03-.41-.06-.61-.11-.16-.08-.29-.2-.4-.36,2.8-.85,6.99-5.94,8.01-7.27-2.12,2.26-4.28,4.6-6.89,6.29-.45.28-.89.5-1.29.61-.04-.12-.06-.25-.08-.4-.05-.46-.04-.93.03-1.41.45-.19.89-.4,1.33-.61,2.11-1.09,4.12-2.39,5.84-4.04.78-.89,1.41-1.9,2.29-2.7-.93.73-1.64,1.72-2.44,2.55-2.05,1.79-4.44,3.25-6.95,4.31.59-3.04,3-6.41,4.59-8.65-1.87,2.25-4.47,5.64-5.02,8.83-.03.01-.07.03-.1.04-.53.19-1,.33-1.4.38-.18-1.47.17-2.96.53-4.39.53-2.01,1.27-3.97,2.08-5.89-.97,1.85-1.79,3.79-2.4,5.8-.42,1.45-.77,2.98-.62,4.51-.25,0-.46-.05-.64-.15-.15-.2-.29-.41-.44-.62-.11-.37-.13-.87-.05-1.56.53-3.47,1.98-6.77,3.46-9.94-.8,1.28-3.98,7.57-3.91,10.79-.6-.92-1.12-1.9-1.59-2.9-.37-2.8.64-5.86,2.27-8.34-1.64,2.18-2.7,4.85-2.69,7.42-.73-1.73-1.29-3.54-1.69-5.35-.14-.78-.35-1.59-.19-2.38.33-.94.4-.5.37.17.11-.82-.08-1.13-.45-.2-.21.8-.03,1.64.07,2.44.41,2.19,1.06,4.35,1.97,6.39.24,1.9,1.12,3.7,2.83,5.16.14.13.29.25.43.37l-.31-.23c-6.08,8.3-17.45,23.37-21.42,27.16-.38-.04-.75-.05-.92-.01-.42.09-3.49,3.3-4.35,4.51-.85,1.21-1.42,2.08-.06,2.33,1.35.25,5.49-5.03,5.49-5.03l.34-.43s.4-.43.59-.87c.07-.17-.14-.29-.46-.38,5.4-5.38,20.5-25.96,21.23-26.96.52.4,1.05.72,1.59.95,3.49,2.04,8.34,1.39,12.08.23-3.01.7-6.66,1.22-9.73.35Zm-3.65-2.11c-.13-.13-.25-.26-.36-.4.08,0,.17,0,.26,0,.03.14.07.27.11.4Zm1.91,1.35s-.04-.02-.06-.02c.02,0,.03,0,.05,0,0,0,0,.02.01.03Zm-.25-2.15c-.05.45-.06.89-.01,1.32.02.14.06.28.09.4-.68.06-1.22-.3-1.45-1.36.47-.07.92-.2,1.36-.36Zm-3.24-.54c.03.09.07.17.12.25-.66-.75-1.14-1.56-1.45-2.43.4.75.85,1.48,1.34,2.18Z"/>
    <g>
      <path class="cls-1" d="m399.6,84.98c-1.83.77-4.11,1.26-6.01.55,2.33.05,6.23-1.68,7.72-2.34-1.73.59-6.8,2.65-8.6,1.9-.1-.06-.19-.13-.29-.2-.06-.1-.11-.21-.13-.33,2,.23,6.02-1.82,7.04-2.38-.94.37-5.22,2.39-7.06,2.08.02-.36.2-.76.44-1.15.34,0,.69,0,1.03-.02,1.63-.11,3.26-.37,4.8-.94.74-.36,1.42-.8,2.19-1.07-.79.2-1.51.63-2.24.94-1.52.51-3.16.71-4.76.81-.27,0-.55.01-.83.01.46-.64,1.08-1.23,1.46-1.55,1.18-1.02,2.49-1.87,3.84-2.65-1.41.67-2.76,1.48-3.99,2.47-.45.36-1.13,1-1.63,1.71-.36-.02-.7-.07-1.04-.16.83-2.31,2.78-4.05,4.47-5.76-1.85,1.58-3.87,3.32-4.73,5.67-.17-.07-.29-.16-.36-.28-.04-.16-.07-.31-.1-.47.13-1.78,4.57-5.72,5.31-6.35-.87.6-4.6,3.67-5.44,5.72-.13-.76-.19-1.52-.21-2.29.55-1.91,2.1-3.51,3.73-4.6-1.54.88-3.01,2.25-3.74,3.91.02-1.28.17-2.56.41-3.81.16-.62.23-1.36.77-1.78.25-.19,0,.31-.05.43.07-.11.38-.67.03-.47-.58.39-.7,1.16-.89,1.78-.34,1.48-.53,3-.52,4.53-.15.49-.23,1.01-.23,1.54.02,1.41.54,2.82,1.47,3.89,1.6,2.34,4.91,3.3,7.64,3.6-2.08-.39-4.5-1.06-6.19-2.44,2.06,1.06,4.69.48,6.67-.53Zm-8.43-1.85c-.04-.11-.08-.22-.11-.33.05.02.1.05.15.07-.02.09-.03.18-.04.26Zm.83,1.37s0,0,0,0h0Zm0-.31c-.45-.17-.67-.55-.53-1.24.31.08.63.13.94.15-.22.36-.37.73-.41,1.09Zm-1.71-4.06c.05.58.13,1.16.24,1.73,0,.05,0,.1,0,.14-.15-.51-.24-1.03-.26-1.55,0-.11,0-.21.01-.32Z"/>
      <path class="cls-1" d="m390.64,83.11c-6.12,3.56-17.46,9.94-20.99,11.23-.23-.13-.46-.24-.57-.26-.29-.06-3.11,1.12-3.98,1.65-.87.53-1.47.92-.68,1.45.78.53,4.85-1.66,4.85-1.66l.33-.18s.37-.16.61-.38c.09-.08,0-.22-.18-.36,4.89-1.91,20.09-10.73,20.81-11.15l-.19-.32Z"/>
    </g>
    <path class="cls-1" d="m440.41,63.44c2.48,1.15,5.72.47,8.19-.51-2.03.63-4.49,1.17-6.64.74,2.21-.04,4.32-1.6,5.68-3.58-1.26,1.54-3.04,3.04-5.05,3.29,2.08-1.05,4.72-4.4,5.73-5.68-.74.76-4.79,5.57-6.67,5.71-.11,0-.23-.03-.35-.04-.13-.04-.24-.12-.33-.24,1.89-.71,4.41-4.34,5.12-5.39-.77.91-3.51,4.55-5.26,5.14-.03-.08-.06-.16-.08-.26-.07-.32-.09-.64-.07-.96.31-.15.6-.32.9-.49,1.39-.86,2.71-1.85,3.8-3.08.49-.67.88-1.37,1.43-1.97-.6.55-1.04,1.26-1.54,1.88-1.11,1.16-2.46,2.1-3.83,2.94-.24.14-.49.27-.74.4.09-.7.33-1.4.57-2.06.56-1.45,1.33-2.82,2.16-4.14-.93,1.25-1.75,2.6-2.37,4.05-.23.52-.53,1.42-.64,2.28-.32.15-.65.27-.98.35-.46-2.06.75-5.55,1.25-7.18-.67,1.65-1.99,5.07-1.53,7.23-.18.02-.33,0-.45-.08-.11-.12-.2-.25-.31-.37-.72-1.63,1.36-7.19,1.73-8.1-.49.95-2.35,5.4-2.13,7.6-.46-.61-.88-1.26-1.25-1.93-.41-1.95.22-4.08,1.14-5.81-1.02,1.56-1.6,3.47-1.44,5.26-.6-1.16-1.07-2.38-1.45-3.61-.15-.62-.43-1.31-.15-1.93.13-.28.15.28.16.4,0-.13.02-.77-.19-.42-.33.61-.07,1.35.05,1.99.4,1.49.96,2.95,1.7,4.31.27,1.29.95,2.48,2.19,3.37.09.07.19.14.28.21l-.19-.12c-3.75,6.01-10.78,16.95-13.3,19.75-.26-.01-.52,0-.63.04-.29.08-2.23,2.44-2.75,3.32-.52.88-.86,1.5.08,1.6.94.1,3.51-3.74,3.51-3.74l.21-.31s.25-.32.36-.62c.04-.12-.11-.19-.33-.24,3.42-3.97,12.71-18.85,13.17-19.59.41.27.83.47,1.25.61Zm.29-.22s-.01,0-.02,0c0,0,0,0,.01,0,0,0,0,0,0,0Zm-.29-1.43c-.02.42.01.82.15,1.16-.24.04-.46,0-.64-.14-.17-.2-.29-.44-.38-.71.31-.07.6-.18.88-.31Zm-1.05.63c-.1-.08-.19-.17-.29-.27.06,0,.12,0,.18,0,.03.1.07.19.11.28Zm-2.07-1.98c-.05-.09-.09-.19-.14-.29.31.49.66.96,1.03,1.42.02.05.05.09.07.13-.37-.38-.7-.8-.96-1.26Z"/>
    <path class="cls-1" d="m397.01,201.5c.84-.05.97-.32.07-.47-.79,0-1.54.32-2.27.58-1.86.78-3.83,1.79-5.64,3.02-1.71.6-3.24,1.76-4.4,3.52-.07.1-.14.2-.2.31l.06-.12c-6.31-3.41-21.8-12.05-25.6-15.23.02-.37,0-.74-.03-.89-.1-.38-3.15-2.69-4.29-3.28-1.14-.58-1.95-.96-2.11.36-.16,1.32,4.82,4.25,4.82,4.25l.41.24s.41.3.81.4c.16.04.26-.2.32-.52,5.12,4.1,24.3,14.49,25.41,15.09-.33.55-.59,1.1-.77,1.66-1.61,3.62-.92,7.88.39,11.48-.84-2.86-1.39-6.06-.8-9.02.03,2.83,1.75,5.45,4.56,7.22-2.33-1.69-3.89-3.96-4.17-6.41,1.43,2.7,6.01,6.06,7.3,6.96-1.18-1.03-7.14-5.72-7.33-8.27.01-.18.04-.37.07-.56.06-.17.16-.33.31-.47.92,2.41,5.47,5.35,6.96,6.22-1.25-.94-5.91-4.16-6.63-6.45.1-.05.2-.1.32-.14.42-.15.87-.22,1.33-.26,1.09,2.22,2.61,4.23,4.47,5.85.85.62,1.84,1.02,2.62,1.74-.71-.77-1.69-1.23-2.5-1.89-1.7-1.62-3.14-3.6-4.19-5.72,2.73-.02,5.86,1.61,8.06,2.76-2.1-1.34-5.4-3.19-8.23-3.13-.03-.07-.07-.15-.11-.22-.17-.4-.28-.76-.34-1.08,2.64-.96,7.09.06,9.42.56-1.77-.59-3.59-1-5.46-1.2-1.33-.13-2.72-.15-4.01.24,0-.24.03-.44.12-.62.15-.17.31-.33.47-.49.32-.19.78-.32,1.41-.37,3.11-.17,6.23.61,9.21,1.45-1.64-.65-7.17-2.35-9.97-1.71.81-.73,1.68-1.4,2.58-2.03,2.37-.82,5.1-.57,7.64.61-2.21-1.21-4.6-1.62-6.8-1.18.43-.28.86-.55,1.29-.82,1.06-.64,2.16-1.22,3.29-1.71.71-.29,1.42-.63,2.19-.68.93.12.61.29-.06.39Zm-13.2,9.48s0,0,0-.01c0,0,0,0,0,0,0,0,0,0,0,0Zm1.87-.7s.03.07.05.1c-.54.05-1.06.17-1.55.39-.04-.38.04-.72.29-1.01.24-.22.52-.4.84-.55.07.32.19.67.37,1.07Zm-.43-1.48c-.08.04-.16.07-.24.11.08-.1.16-.2.24-.3,0,.06,0,.12,0,.19Zm.68-1.5s-.01,0-.02,0c.51-.59,1.07-1.1,1.68-1.5-.59.47-1.15.97-1.66,1.5Z"/>
    <g>
      <path class="cls-1" d="m315.59,156.74c.2-.73.29-1.47.28-2.2.63-2.15.96-4.39,1.06-6.63-.01-.81.05-1.68-.28-2.44-.52-.91-.64-.49-.42.26-.13-.71-.11-1.08.34-.22.27.75.17,1.6.14,2.39-.15,1.86-.45,3.73-.94,5.55-.37-2.66-1.92-5.19-3.74-7.08,1.96,2.27,3.43,5.23,3.44,8.11-.33,1.05-.72,2.08-1.18,3.07-.37-3.24-4.47-9.19-5.43-10.33,1.92,2.99,3.83,6.11,4.85,9.53.19.71.24,1.24.17,1.62-.11.21-.22.42-.34.63-.16.13-.37.2-.62.23-.06-1.56-.63-3.05-1.25-4.45-.89-1.94-1.98-3.78-3.21-5.51,1.08,1.82,2.09,3.69,2.9,5.64.55,1.39,1.11,2.84,1.15,4.34-.41-.01-.91-.09-1.47-.22-.02,0-.04-.01-.06-.02,0,0,0,0,0,0-1.23-3.29-3.76-5.9-6.28-8.23,1.6,1.65,3.11,3.4,4.37,5.32.53.86,1.11,1.8,1.46,2.79-2.68-.77-5.29-1.95-7.59-3.49-.91-.74-1.76-1.64-2.79-2.25.99.69,1.76,1.62,2.66,2.42,1.94,1.45,4.13,2.5,6.39,3.34.49.17.98.33,1.48.47.16.59.23,1.19.14,1.8-.43-.06-.9-.23-1.38-.46-2.84-1.38-5.32-3.45-7.75-5.45,1.2,1.2,6.13,5.81,9.05,6.31-.08.18-.2.31-.35.41-.2.07-.39.13-.59.18-2.75.24-9.9-5.33-11.3-6.31,2.63,2.25,5.39,4.41,8.51,5.96.49.25.95.43,1.39.57-2.83.14-5.85-1.34-8.18-3.28,2.35,2.26,5.96,4.13,9.24,3.55-2.96,1.23-6.67,1.14-9.73.81,3.9.71,8.89.79,12.11-1.74.16-.1.32-.21.47-.33,1.54-1.15,2.75-2.79,3.27-4.65Zm-2.66,2.92c.09,0,.18-.02.26-.03-.1.16-.21.31-.32.46.02-.13.04-.27.06-.42Zm1.26-.84c.03-.08.06-.15.08-.24.39-.76.73-1.55,1.03-2.35-.19.89-.56,1.76-1.11,2.58Zm-1.67.85c-.07,1.08-.56,1.5-1.24,1.53.06-.45,0-1.03-.17-1.72.46.11.93.18,1.4.19Zm-1.33,1.95s.02,0,.02,0c0,0-.02.01-.03.02,0,0,0-.01,0-.02Z"/>
      <path class="cls-1" d="m344.77,188.7c-1.02-1.11-4.55-3.95-4.98-3.99-.17-.01-.54.03-.91.12-4.5-3.32-17.99-17.03-25.23-24.6l-.39.38c.86.89,18.86,19.68,25.01,24.41-.3.13-.5.28-.4.43.25.41.71.8.71.8l.4.39s4.88,4.79,6.19,4.37c1.32-.42.63-1.21-.39-2.32Z"/>
    </g>
    <g>
      <path class="cls-1" d="m325.03,147.78c.35-.64.59-1.3.76-1.98,1.2-2,2.12-4.18,2.78-6.41.19-.81.46-1.66.31-2.51-.29-1.06-.5-.61-.48.17.06-.71.15-1.15.39-.15.1.82-.21,1.64-.43,2.42-.62,1.83-1.41,3.65-2.37,5.35.34-2.86-.6-5.9-1.9-8.39,1.28,2.78,2.07,6.32,1.33,9.32-.59.95-1.24,1.86-1.95,2.7.47-3.34-2.01-10.53-2.74-12.24,1.13,3.64,2.21,7.39,2.37,11.2,0,.78-.07,1.32-.23,1.69-.17.19-.34.38-.52.56-.2.07-.43.07-.69,0,.79-3.36-.84-8.59-1.84-11.53.72,2.88,2.2,8.22,1.44,11.41-.41-.16-.89-.42-1.43-.74,0-.03,0-.07,0-.1-.42-3.74-2.22-7.15-4.12-10.32,1.33,2.65,3.41,6.75,3.68,10.11-2.47-1.7-4.74-3.76-6.62-6.1-.7-1.04-1.31-2.21-2.17-3.17.78,1.02,1.32,2.18,1.99,3.29,1.88,2.54,4.22,4.73,6.83,6.51,0,.51-.03,1.01-.13,1.47-.03.16-.08.29-.13.41-2.63-1.32-6.78-7.91-7.57-9.04.78,1.43,4.53,7.93,7.35,9.41-.12.14-.26.24-.41.29-.23,0-.46,0-.69-.01-2.85-.76-8.69-9.09-9.57-10.18,1.31,2.1,2.75,4.12,4.31,6.05,1.17,1.38,2.37,2.85,3.87,3.88-2.96-.84-5.6-3.5-7.31-6.09,1.81,3.03,4.66,6.22,8.34,6.69-3.34.27-7.11-1.16-9.95-2.47,3.59,1.96,8.58,3.88,12.53,2.3,2.07-.55,3.91-1.99,4.97-3.85Zm-.2-.51c-.43.87-1.03,1.66-1.84,2.33.07-.08.13-.17.18-.27.6-.65,1.15-1.34,1.66-2.06Zm-2.98,2.75c-.15.13-.3.26-.46.37.06-.14.11-.27.16-.42.1.02.2.04.3.05Zm-2-.82c.48.31.91.52,1.28.66-.06.17-.12.34-.19.5-.32.63-.82.78-1.41.59.22-.52.32-1.16.32-1.75Zm-.53,2.14s.05.01.07.02c-.03,0-.06.01-.09.02,0-.01.01-.03.02-.04Z"/>
      <path class="cls-1" d="m345.69,189.96c-.73-1.46-3.49-5.51-3.91-5.7-.16-.07-.53-.15-.92-.18-3.62-4.87-13.48-23.23-18.72-33.3l-.5.26c.62,1.19,13.65,26.2,18.53,33.03-.32.03-.55.11-.49.3.15.5.5,1.04.5,1.04l.3.53s3.61,6.47,5.02,6.5.94-1.01.21-2.47Z"/>
    </g>
    <path class="cls-1" d="m358.1,193.63c0-.12.01-.24.01-.37,0-5.2-5.25-9.42-11.73-9.42s-11.73,4.22-11.73,9.42c0,.14,0,.27.01.4,0,.08-.01.17-.01.25v61.85c0,1.85,1.5,3.35,3.35,3.35h16.77c1.85,0,3.35-1.5,3.35-3.35v-61.85c0-.1,0-.19-.01-.29Z"/>
    <path class="cls-1" d="m342.57,187.21c-.94-.63-4.02-2.02-4.36-1.93-.13.03-.4.17-.68.34-4.04-1.55-17.33-9.91-22.67-13.36.03-.05.06-.1.09-.16.89-1.66,1.13-3.36.85-4.96.19-1.86.16-3.75-.05-5.61-.11-.68-.19-1.39-.52-2-.53-.67-.65-.38-.34.25-.04-.11-.29-.8.01-.51.6.58.54,1.51.66,2.29.1,1.09.11,2.18.07,3.27-.02.42-.05.84-.08,1.25-.61-1.86-1.94-3.51-3.79-4.67,1.82,1.35,3.29,3.35,3.71,5.57-.1.96-.24,1.92-.47,2.86-.77-2.48-4.48-6.05-5.56-6.91,1.91,1.96,3.83,4.05,5.01,6.53.23.51.33.91.31,1.24-.06.19-.11.37-.18.56-.1.13-.23.24-.41.34-.48-2.55-3.18-5.37-4.77-6.89,1.37,1.62,4.03,4.59,4.41,7.04-.27.09-.59.15-.97.19-.07,0-.13,0-.2.01-1.17-2.22-3.98-3.96-5.93-5.02,1.48.95,2.91,2,4.14,3.26.44.46.99,1.09,1.39,1.79-2.08.09-4.21-.18-6.18-.8-.83-.34-1.62-.9-2.52-1.12.89.3,1.61.9,2.45,1.3,1.75.67,3.61.95,5.48,1.01.32,0,.65,0,.97-.01.22.46.36.94.34,1.39-2.08.4-6.53-1.82-7.78-2.38,1.31.78,5.42,3.06,7.72,2.77-.03.12-.08.24-.14.36-.15.12-.3.22-.45.32-2.11.88-7.63-1.46-9.49-2.14,1.24.63,5.65,2.69,8.37,2.72-1.87.74-4.16.6-6.61-.53,2.49,1.4,5.2,1.64,7.4.55-2.02,1.65-4.67,2.56-7.19,3.12,3.37-.5,6.99-1.79,9.11-4.6.33-.36.63-.77.9-1.23,2.07,1.34,17.24,11.1,22.44,13.25-.21.18-.33.35-.24.45.25.27.65.46.65.46l.36.21s4.39,2.61,5.34,1.93c.95-.68.32-1.15-.61-1.79Zm-27.16-17.53c.01-.06.03-.12.04-.18-.01.06-.02.12-.04.18Zm-1.09,2.3s.02-.01.03-.02c-.03.07-.06.13-.08.2,0-.05,0-.1,0-.16.02,0,.04-.01.06-.02Zm-1.47.34c.35-.03.69-.09,1.03-.19.02.3,0,.59-.07.86-.12.3-.33.5-.62.63-.04-.45-.16-.88-.34-1.3Z"/>
    <path class="cls-1" d="m338.7,188.39c-.96.14-3.73,1.01-3.9,1.24-.06.08-.15.28-.23.5-3.08,1.15-14.44,3.25-22.16,4.52,0-.03-.01-.05-.02-.08-.37-1.49-1.18-2.61-2.23-3.4-.95-1.23-2.05-2.34-3.25-3.32-.55-.38-1.17-.99-1.89-.86-.15.05.02.17.08.2.1.06.2.1.31.14-.08-.04-.61-.31-.29-.3.68.01,1.17.57,1.67.97.89.81,1.74,1.69,2.51,2.63-1.46-.75-3.24-.96-5-.63,2.02-.2,4.07.24,5.58,1.37.41.56.79,1.13,1.13,1.73-1.98-1-6.27-1.03-7.35-.94,1.03.05,6.56.38,7.75,1.67.07.14.15.28.22.43.01.11,0,.24-.05.36-2.04-1.26-4.6-1.37-6.93-1.41,1.71.23,5.09.52,6.75,1.75-.16.25-.37.48-.59.71-.75-.23-1.59-.3-2.18-.3-1.52,0-3.02.23-4.47.62,1.48-.23,2.98-.39,4.47-.32.63.04,1.28.11,1.89.28-.16.15-.33.29-.49.43-1.21.95-2.52,1.85-3.94,2.45-.72.25-1.53.36-2.23.72.74-.29,1.52-.33,2.29-.54,1.5-.54,2.85-1.38,4.1-2.35.23-.19.45-.38.66-.57.29.11.56.26.8.45.06.04.1.09.15.13-1.14,1.36-5.25,2.5-6.32,2.86,1.22-.21,5.19-1.12,6.55-2.53.05.12.06.24.05.37-.02.08-.04.15-.06.23-.69,1.68-6.36,3.58-7.34,4.01,1.47-.4,5.07-1.43,6.84-2.86-.91,1.52-2.6,2.62-4.48,3.19,2.21-.45,4.13-1.7,5.02-3.49-.43,2.01-1.62,3.96-2.82,5.54,1.83-2,3.52-4.81,3.34-7.58.02-.41-.02-.84-.1-1.29,2.19-.36,17.32-2.87,21.9-4.44-.02.19,0,.34.1.34.31.02.68-.09.68-.09l.35-.07s4.3-.86,4.53-1.78c.23-.93-.44-.86-1.4-.72Zm-27.51,7.44c.18-.18.34-.39.49-.6.17.17.33.34.44.54.06.2.04.39-.05.59-.24-.22-.54-.39-.88-.53Z"/>
    <g>
      <path class="cls-1" d="m370.96,138.46c.61-.58.96-.76.43.2-.55.73-1.41,1.17-2.18,1.63-1.91,1.02-3.93,1.95-6.02,2.65,2.35-1.97,3.83-5.03,4.48-7.97-.9,3.32-2.77,6.5-5.48,8.28-1.25.37-2.53.66-3.82.83.27-.22.55-.49.85-.83,2.59-3.12,4.23-6.92,5.61-10.7-.6,1.53-4.58,10.51-7.34,11.62-.29.03-.57.04-.86.06-.22-.07-.43-.23-.62-.47,3.02-1.99,5.56-7.68,6.63-10.31-1.02,2.14-2.13,4.25-3.45,6.22-.97,1.39-1.98,2.82-3.39,3.78-.33-.5-.6-1.05-.82-1.62.82-1.02,1.41-2.24,1.89-3.43.95-2.42,1.55-4.95,1.92-7.51-.68,3.04-1.78,7.76-3.96,10.53-.16-.45-.29-.92-.42-1.37-.66-2.57-1.16-5.25-1.13-7.91.11-1.31.44-2.66.36-4,0,1.35-.39,2.65-.56,3.99-.1,3.26.43,6.53,1.48,9.61-.38.44-.79.82-1.23,1.12-.15.1-.3.18-.44.25-.22-.43-.38-.99-.48-1.6-.53-3.51-.15-7.11.21-10.63-.36,2.04-1.53,9.38-.08,12.34-.24.05-.46.04-.66-.04-.23-.16-.46-.34-.67-.53-1.96-2.57-1.23-12.7-1.19-14.38-.28,2.61-.98,9.92.33,13.48-2.08-2.53-2.67-6.33-2.29-9.88-.57,3.73-.09,8.29,2.83,10.95.02.02.03.04.05.07-3.23-1.96-5.65-5.64-7.32-8.78,1.9,4.13,5.09,8.82,9.58,10.17,2.16.91,4.66,1.03,6.89.35.84-.26,1.6-.64,2.3-1.11,2.42-.75,4.75-1.81,6.93-3.09.76-.51,1.62-.99,2.16-1.76.54-1.06.09-.91-.5-.24Zm-15.02,5.8c-.28,0-.56,0-.84,0,.19-.07.38-.17.57-.27.09.1.18.2.27.28Zm-2.41-1.06c.44-.29.83-.64,1.17-1.02.23.6.48,1.11.75,1.51-1.14.65-1.88.44-2.37-.24.16-.07.31-.16.45-.25Zm-.8.38c.05.08.1.15.16.22-.11-.05-.22-.11-.33-.17.06-.01.11-.03.17-.05Zm3.61,1.1c.11,0,.22-.01.33-.02.28.06.58.04.9-.08,1.13-.13,2.24-.33,3.34-.61-1.35.61-2.88.89-4.56.71Z"/>
      <path class="cls-1" d="m355.02,144.94c-.3,1.35-6.54,29.81-7.04,38.39-.34-.23-.63-.34-.72-.14-.22.49-.3,1.15-.3,1.15l-.11.61s-1.4,7.5-.16,8.46c1.24.96,1.56-.17,1.95-1.8.39-1.64.82-6.67.57-7.1-.1-.18-.41-.52-.76-.82.27-6.32,4.56-27.26,7.06-38.65l-.49-.11Z"/>
    </g>
  </g>
</svg>